<mxfile host="app.diagrams.net" modified="2020-11-06T10:59:04.849Z" agent="5.0 (Macintosh; Intel Mac OS X 10_15_6) AppleWebKit/537.36 (KHTML, like Gecko) Chrome/86.0.4240.183 Safari/537.36" etag="22l2mzuFeKHBGk5dI0NI" version="13.9.2" type="github">
  <diagram id="Va_Q2Z6FjLkRy5wQm_DS" name="Page-1">
    <mxGraphModel dx="946" dy="646" grid="1" gridSize="10" guides="1" tooltips="1" connect="1" arrows="1" fold="1" page="1" pageScale="1" pageWidth="2336" pageHeight="1654" math="0" shadow="0">
      <root>
        <mxCell id="0" />
        <mxCell id="1" parent="0" />
        <mxCell id="2nVb03XnOFbqIxCRd-F6-5" style="edgeStyle=orthogonalEdgeStyle;orthogonalLoop=1;jettySize=auto;html=1;entryX=0;entryY=0.5;entryDx=0;entryDy=0;curved=1;" parent="1" source="2nVb03XnOFbqIxCRd-F6-1" target="2nVb03XnOFbqIxCRd-F6-2" edge="1">
          <mxGeometry relative="1" as="geometry" />
        </mxCell>
        <mxCell id="2nVb03XnOFbqIxCRd-F6-8" style="edgeStyle=orthogonalEdgeStyle;curved=1;orthogonalLoop=1;jettySize=auto;html=1;" parent="1" source="2nVb03XnOFbqIxCRd-F6-1" target="2nVb03XnOFbqIxCRd-F6-6" edge="1">
          <mxGeometry relative="1" as="geometry" />
        </mxCell>
        <mxCell id="2nVb03XnOFbqIxCRd-F6-10" style="edgeStyle=orthogonalEdgeStyle;curved=1;orthogonalLoop=1;jettySize=auto;html=1;entryX=0.5;entryY=0;entryDx=0;entryDy=0;" parent="1" source="2nVb03XnOFbqIxCRd-F6-1" target="2nVb03XnOFbqIxCRd-F6-9" edge="1">
          <mxGeometry relative="1" as="geometry" />
        </mxCell>
        <mxCell id="2nVb03XnOFbqIxCRd-F6-12" style="edgeStyle=orthogonalEdgeStyle;curved=1;orthogonalLoop=1;jettySize=auto;html=1;" parent="1" source="2nVb03XnOFbqIxCRd-F6-1" target="2nVb03XnOFbqIxCRd-F6-11" edge="1">
          <mxGeometry relative="1" as="geometry" />
        </mxCell>
        <mxCell id="2nVb03XnOFbqIxCRd-F6-14" style="edgeStyle=orthogonalEdgeStyle;curved=1;orthogonalLoop=1;jettySize=auto;html=1;entryX=0.5;entryY=1;entryDx=0;entryDy=0;" parent="1" source="2nVb03XnOFbqIxCRd-F6-1" target="2nVb03XnOFbqIxCRd-F6-13" edge="1">
          <mxGeometry relative="1" as="geometry" />
        </mxCell>
        <mxCell id="2nVb03XnOFbqIxCRd-F6-16" style="edgeStyle=orthogonalEdgeStyle;curved=1;orthogonalLoop=1;jettySize=auto;html=1;entryX=0.5;entryY=1;entryDx=0;entryDy=0;" parent="1" source="2nVb03XnOFbqIxCRd-F6-1" target="2nVb03XnOFbqIxCRd-F6-15" edge="1">
          <mxGeometry relative="1" as="geometry" />
        </mxCell>
        <mxCell id="2nVb03XnOFbqIxCRd-F6-1" value="Koala" style="ellipse;whiteSpace=wrap;html=1;" parent="1" vertex="1">
          <mxGeometry x="1108" y="787" width="120" height="80" as="geometry" />
        </mxCell>
        <mxCell id="2nVb03XnOFbqIxCRd-F6-18" style="edgeStyle=orthogonalEdgeStyle;curved=1;orthogonalLoop=1;jettySize=auto;html=1;exitX=1;exitY=0.5;exitDx=0;exitDy=0;entryX=0;entryY=0.5;entryDx=0;entryDy=0;entryPerimeter=0;" parent="1" source="2nVb03XnOFbqIxCRd-F6-2" target="2nVb03XnOFbqIxCRd-F6-17" edge="1">
          <mxGeometry relative="1" as="geometry">
            <Array as="points">
              <mxPoint x="1400" y="750" />
              <mxPoint x="1400" y="610" />
            </Array>
          </mxGeometry>
        </mxCell>
        <mxCell id="2nVb03XnOFbqIxCRd-F6-22" style="edgeStyle=orthogonalEdgeStyle;curved=1;orthogonalLoop=1;jettySize=auto;html=1;entryX=0;entryY=0.5;entryDx=0;entryDy=0;entryPerimeter=0;" parent="1" source="2nVb03XnOFbqIxCRd-F6-2" target="2nVb03XnOFbqIxCRd-F6-21" edge="1">
          <mxGeometry relative="1" as="geometry">
            <Array as="points">
              <mxPoint x="1420" y="750" />
              <mxPoint x="1420" y="727" />
            </Array>
          </mxGeometry>
        </mxCell>
        <mxCell id="2nVb03XnOFbqIxCRd-F6-77" style="edgeStyle=orthogonalEdgeStyle;curved=1;orthogonalLoop=1;jettySize=auto;html=1;exitX=1;exitY=0;exitDx=0;exitDy=0;entryX=0;entryY=0.5;entryDx=0;entryDy=0;entryPerimeter=0;" parent="1" source="2nVb03XnOFbqIxCRd-F6-2" target="2nVb03XnOFbqIxCRd-F6-19" edge="1">
          <mxGeometry relative="1" as="geometry" />
        </mxCell>
        <mxCell id="2nVb03XnOFbqIxCRd-F6-2" value="Clienti" style="ellipse;whiteSpace=wrap;html=1;fillColor=#fff2cc;strokeColor=#d6b656;" parent="1" vertex="1">
          <mxGeometry x="1300" y="715" width="90" height="70" as="geometry" />
        </mxCell>
        <mxCell id="2nVb03XnOFbqIxCRd-F6-42" style="edgeStyle=orthogonalEdgeStyle;curved=1;orthogonalLoop=1;jettySize=auto;html=1;entryX=0;entryY=0.5;entryDx=0;entryDy=0;entryPerimeter=0;" parent="1" source="2nVb03XnOFbqIxCRd-F6-6" target="2nVb03XnOFbqIxCRd-F6-41" edge="1">
          <mxGeometry relative="1" as="geometry" />
        </mxCell>
        <mxCell id="2nVb03XnOFbqIxCRd-F6-44" style="edgeStyle=orthogonalEdgeStyle;curved=1;orthogonalLoop=1;jettySize=auto;html=1;entryX=0;entryY=0.5;entryDx=0;entryDy=0;entryPerimeter=0;exitX=0.5;exitY=1;exitDx=0;exitDy=0;" parent="1" source="2nVb03XnOFbqIxCRd-F6-6" target="2nVb03XnOFbqIxCRd-F6-43" edge="1">
          <mxGeometry relative="1" as="geometry" />
        </mxCell>
        <mxCell id="2nVb03XnOFbqIxCRd-F6-6" value="Pricing" style="ellipse;whiteSpace=wrap;html=1;fillColor=#ffe6cc;strokeColor=#d79b00;" parent="1" vertex="1">
          <mxGeometry x="1275" y="870" width="100" height="80" as="geometry" />
        </mxCell>
        <mxCell id="2nVb03XnOFbqIxCRd-F6-9" value="Promovare" style="ellipse;whiteSpace=wrap;html=1;fillColor=#dae8fc;strokeColor=#6c8ebf;" parent="1" vertex="1">
          <mxGeometry x="1119" y="920" width="98" height="80" as="geometry" />
        </mxCell>
        <mxCell id="upSCspArTriGyhxUzlXV-28" style="edgeStyle=orthogonalEdgeStyle;rounded=1;orthogonalLoop=1;jettySize=auto;html=1;exitX=0;exitY=0.5;exitDx=0;exitDy=0;" edge="1" parent="1" source="2nVb03XnOFbqIxCRd-F6-11" target="upSCspArTriGyhxUzlXV-24">
          <mxGeometry relative="1" as="geometry" />
        </mxCell>
        <mxCell id="upSCspArTriGyhxUzlXV-30" style="edgeStyle=orthogonalEdgeStyle;rounded=1;orthogonalLoop=1;jettySize=auto;html=1;exitX=0;exitY=1;exitDx=0;exitDy=0;strokeColor=none;" edge="1" parent="1" source="2nVb03XnOFbqIxCRd-F6-11" target="upSCspArTriGyhxUzlXV-25">
          <mxGeometry relative="1" as="geometry" />
        </mxCell>
        <mxCell id="upSCspArTriGyhxUzlXV-31" style="edgeStyle=orthogonalEdgeStyle;rounded=1;orthogonalLoop=1;jettySize=auto;html=1;exitX=0;exitY=1;exitDx=0;exitDy=0;" edge="1" parent="1" source="2nVb03XnOFbqIxCRd-F6-11" target="upSCspArTriGyhxUzlXV-25">
          <mxGeometry relative="1" as="geometry">
            <Array as="points">
              <mxPoint x="950" y="948" />
              <mxPoint x="950" y="955" />
            </Array>
          </mxGeometry>
        </mxCell>
        <mxCell id="upSCspArTriGyhxUzlXV-34" style="edgeStyle=orthogonalEdgeStyle;rounded=1;orthogonalLoop=1;jettySize=auto;html=1;entryX=1;entryY=0.5;entryDx=0;entryDy=0;entryPerimeter=0;" edge="1" parent="1" source="2nVb03XnOFbqIxCRd-F6-11" target="upSCspArTriGyhxUzlXV-33">
          <mxGeometry relative="1" as="geometry">
            <Array as="points">
              <mxPoint x="980" y="1010" />
            </Array>
          </mxGeometry>
        </mxCell>
        <mxCell id="2nVb03XnOFbqIxCRd-F6-11" value="Costuri" style="ellipse;whiteSpace=wrap;html=1;fillColor=#d5e8d4;strokeColor=#82b366;" parent="1" vertex="1">
          <mxGeometry x="960" y="880" width="100" height="80" as="geometry" />
        </mxCell>
        <mxCell id="2nVb03XnOFbqIxCRd-F6-13" value="Resurse" style="ellipse;whiteSpace=wrap;html=1;fillColor=#f8cecc;strokeColor=#b85450;" parent="1" vertex="1">
          <mxGeometry x="960" y="710" width="100" height="70" as="geometry" />
        </mxCell>
        <mxCell id="2nVb03XnOFbqIxCRd-F6-15" value="Future prospects" style="ellipse;whiteSpace=wrap;html=1;fillColor=#e1d5e7;strokeColor=#9673a6;" parent="1" vertex="1">
          <mxGeometry x="1117" y="660" width="102" height="70" as="geometry" />
        </mxCell>
        <mxCell id="2nVb03XnOFbqIxCRd-F6-29" style="edgeStyle=orthogonalEdgeStyle;curved=1;orthogonalLoop=1;jettySize=auto;html=1;entryX=0;entryY=0.5;entryDx=0;entryDy=0;" parent="1" source="2nVb03XnOFbqIxCRd-F6-17" target="2nVb03XnOFbqIxCRd-F6-28" edge="1">
          <mxGeometry relative="1" as="geometry" />
        </mxCell>
        <mxCell id="2nVb03XnOFbqIxCRd-F6-31" style="edgeStyle=orthogonalEdgeStyle;curved=1;orthogonalLoop=1;jettySize=auto;html=1;entryX=0;entryY=0.5;entryDx=0;entryDy=0;" parent="1" source="2nVb03XnOFbqIxCRd-F6-17" target="2nVb03XnOFbqIxCRd-F6-30" edge="1">
          <mxGeometry relative="1" as="geometry">
            <Array as="points">
              <mxPoint x="1485" y="620" />
              <mxPoint x="1540" y="620" />
              <mxPoint x="1540" y="545" />
            </Array>
          </mxGeometry>
        </mxCell>
        <mxCell id="2nVb03XnOFbqIxCRd-F6-33" style="edgeStyle=orthogonalEdgeStyle;curved=1;orthogonalLoop=1;jettySize=auto;html=1;entryX=0;entryY=0.5;entryDx=0;entryDy=0;" parent="1" source="2nVb03XnOFbqIxCRd-F6-17" target="2nVb03XnOFbqIxCRd-F6-32" edge="1">
          <mxGeometry relative="1" as="geometry">
            <Array as="points">
              <mxPoint x="1485" y="620" />
              <mxPoint x="1530" y="620" />
              <mxPoint x="1530" y="505" />
            </Array>
          </mxGeometry>
        </mxCell>
        <mxCell id="2nVb03XnOFbqIxCRd-F6-75" style="edgeStyle=orthogonalEdgeStyle;curved=1;orthogonalLoop=1;jettySize=auto;html=1;exitX=0.89;exitY=0.11;exitDx=0;exitDy=0;exitPerimeter=0;entryX=0;entryY=0.5;entryDx=0;entryDy=0;" parent="1" source="2nVb03XnOFbqIxCRd-F6-17" target="2nVb03XnOFbqIxCRd-F6-23" edge="1">
          <mxGeometry relative="1" as="geometry">
            <Array as="points">
              <mxPoint x="1550" y="594" />
              <mxPoint x="1550" y="465" />
            </Array>
          </mxGeometry>
        </mxCell>
        <mxCell id="2nVb03XnOFbqIxCRd-F6-76" style="edgeStyle=orthogonalEdgeStyle;curved=1;orthogonalLoop=1;jettySize=auto;html=1;exitX=0.89;exitY=0.11;exitDx=0;exitDy=0;exitPerimeter=0;entryX=0;entryY=0.5;entryDx=0;entryDy=0;" parent="1" source="2nVb03XnOFbqIxCRd-F6-17" target="2nVb03XnOFbqIxCRd-F6-26" edge="1">
          <mxGeometry relative="1" as="geometry" />
        </mxCell>
        <mxCell id="2nVb03XnOFbqIxCRd-F6-17" value="Corporatii" style="strokeWidth=2;html=1;shape=mxgraph.flowchart.terminator;whiteSpace=wrap;fillColor=#fff2cc;strokeColor=#d6b656;" parent="1" vertex="1">
          <mxGeometry x="1440" y="590" width="90" height="40" as="geometry" />
        </mxCell>
        <mxCell id="2nVb03XnOFbqIxCRd-F6-35" style="edgeStyle=orthogonalEdgeStyle;curved=1;orthogonalLoop=1;jettySize=auto;html=1;entryX=0;entryY=0.5;entryDx=0;entryDy=0;" parent="1" source="2nVb03XnOFbqIxCRd-F6-19" target="2nVb03XnOFbqIxCRd-F6-34" edge="1">
          <mxGeometry relative="1" as="geometry" />
        </mxCell>
        <mxCell id="2nVb03XnOFbqIxCRd-F6-19" value="Small businesses" style="strokeWidth=2;html=1;shape=mxgraph.flowchart.terminator;whiteSpace=wrap;fillColor=#fff2cc;strokeColor=#d6b656;" parent="1" vertex="1">
          <mxGeometry x="1440" y="650" width="90" height="40" as="geometry" />
        </mxCell>
        <mxCell id="2nVb03XnOFbqIxCRd-F6-37" style="edgeStyle=orthogonalEdgeStyle;curved=1;orthogonalLoop=1;jettySize=auto;html=1;entryX=0;entryY=0.5;entryDx=0;entryDy=0;" parent="1" source="2nVb03XnOFbqIxCRd-F6-21" target="2nVb03XnOFbqIxCRd-F6-36" edge="1">
          <mxGeometry relative="1" as="geometry" />
        </mxCell>
        <mxCell id="2nVb03XnOFbqIxCRd-F6-39" style="edgeStyle=orthogonalEdgeStyle;curved=1;orthogonalLoop=1;jettySize=auto;html=1;exitX=1;exitY=0.5;exitDx=0;exitDy=0;exitPerimeter=0;" parent="1" source="2nVb03XnOFbqIxCRd-F6-21" target="2nVb03XnOFbqIxCRd-F6-38" edge="1">
          <mxGeometry relative="1" as="geometry" />
        </mxCell>
        <mxCell id="2nVb03XnOFbqIxCRd-F6-21" value="Institutii ale statului" style="strokeWidth=2;html=1;shape=mxgraph.flowchart.terminator;whiteSpace=wrap;fillColor=#fff2cc;strokeColor=#d6b656;" parent="1" vertex="1">
          <mxGeometry x="1440" y="707" width="90" height="40" as="geometry" />
        </mxCell>
        <mxCell id="2nVb03XnOFbqIxCRd-F6-23" value="organizarea numarului mare de angajati" style="rounded=1;whiteSpace=wrap;html=1;fillColor=#fff2cc;strokeColor=#d6b656;" parent="1" vertex="1">
          <mxGeometry x="1590" y="450" width="130" height="30" as="geometry" />
        </mxCell>
        <mxCell id="2nVb03XnOFbqIxCRd-F6-26" value="keep track of infections" style="rounded=1;whiteSpace=wrap;html=1;fillColor=#fff2cc;strokeColor=#d6b656;" parent="1" vertex="1">
          <mxGeometry x="1590" y="490" width="130" height="30" as="geometry" />
        </mxCell>
        <mxCell id="2nVb03XnOFbqIxCRd-F6-28" value="make employees feel safe" style="rounded=1;whiteSpace=wrap;html=1;fillColor=#fff2cc;strokeColor=#d6b656;" parent="1" vertex="1">
          <mxGeometry x="1590" y="530" width="130" height="30" as="geometry" />
        </mxCell>
        <mxCell id="2nVb03XnOFbqIxCRd-F6-30" value="minimizarea anxietatii" style="rounded=1;whiteSpace=wrap;html=1;fillColor=#fff2cc;strokeColor=#d6b656;" parent="1" vertex="1">
          <mxGeometry x="1590" y="410" width="130" height="30" as="geometry" />
        </mxCell>
        <mxCell id="2nVb03XnOFbqIxCRd-F6-32" value="nevoia de socializare" style="rounded=1;whiteSpace=wrap;html=1;fillColor=#fff2cc;strokeColor=#d6b656;" parent="1" vertex="1">
          <mxGeometry x="1590" y="370" width="130" height="30" as="geometry" />
        </mxCell>
        <mxCell id="2nVb03XnOFbqIxCRd-F6-34" value="reducere costuri" style="rounded=1;whiteSpace=wrap;html=1;fillColor=#fff2cc;strokeColor=#d6b656;" parent="1" vertex="1">
          <mxGeometry x="1590" y="575" width="130" height="30" as="geometry" />
        </mxCell>
        <mxCell id="2nVb03XnOFbqIxCRd-F6-36" value="free of charge" style="rounded=1;whiteSpace=wrap;html=1;fillColor=#fff2cc;strokeColor=#d6b656;" parent="1" vertex="1">
          <mxGeometry x="1590" y="620" width="130" height="30" as="geometry" />
        </mxCell>
        <mxCell id="2nVb03XnOFbqIxCRd-F6-38" value="digitalizare" style="rounded=1;whiteSpace=wrap;html=1;fillColor=#fff2cc;strokeColor=#d6b656;" parent="1" vertex="1">
          <mxGeometry x="1590" y="665" width="130" height="30" as="geometry" />
        </mxCell>
        <mxCell id="2nVb03XnOFbqIxCRd-F6-46" style="edgeStyle=orthogonalEdgeStyle;curved=1;orthogonalLoop=1;jettySize=auto;html=1;entryX=0;entryY=0.5;entryDx=0;entryDy=0;" parent="1" source="2nVb03XnOFbqIxCRd-F6-41" target="2nVb03XnOFbqIxCRd-F6-45" edge="1">
          <mxGeometry relative="1" as="geometry" />
        </mxCell>
        <mxCell id="2nVb03XnOFbqIxCRd-F6-48" style="edgeStyle=orthogonalEdgeStyle;curved=1;orthogonalLoop=1;jettySize=auto;html=1;entryX=0;entryY=0.5;entryDx=0;entryDy=0;" parent="1" source="2nVb03XnOFbqIxCRd-F6-41" target="2nVb03XnOFbqIxCRd-F6-47" edge="1">
          <mxGeometry relative="1" as="geometry" />
        </mxCell>
        <mxCell id="2nVb03XnOFbqIxCRd-F6-50" style="edgeStyle=orthogonalEdgeStyle;curved=1;orthogonalLoop=1;jettySize=auto;html=1;exitX=1;exitY=0.5;exitDx=0;exitDy=0;exitPerimeter=0;entryX=0;entryY=0.5;entryDx=0;entryDy=0;" parent="1" source="2nVb03XnOFbqIxCRd-F6-41" target="2nVb03XnOFbqIxCRd-F6-49" edge="1">
          <mxGeometry relative="1" as="geometry" />
        </mxCell>
        <mxCell id="2nVb03XnOFbqIxCRd-F6-53" style="edgeStyle=orthogonalEdgeStyle;curved=1;orthogonalLoop=1;jettySize=auto;html=1;exitX=1;exitY=0.5;exitDx=0;exitDy=0;exitPerimeter=0;entryX=0;entryY=0.5;entryDx=0;entryDy=0;" parent="1" source="2nVb03XnOFbqIxCRd-F6-41" target="2nVb03XnOFbqIxCRd-F6-51" edge="1">
          <mxGeometry relative="1" as="geometry">
            <Array as="points">
              <mxPoint x="1540" y="890" />
              <mxPoint x="1540" y="975" />
            </Array>
          </mxGeometry>
        </mxCell>
        <mxCell id="2nVb03XnOFbqIxCRd-F6-67" style="edgeStyle=orthogonalEdgeStyle;curved=1;orthogonalLoop=1;jettySize=auto;html=1;entryX=0.5;entryY=1;entryDx=0;entryDy=0;" parent="1" source="2nVb03XnOFbqIxCRd-F6-41" target="2nVb03XnOFbqIxCRd-F6-66" edge="1">
          <mxGeometry relative="1" as="geometry">
            <Array as="points">
              <mxPoint x="1485" y="860" />
              <mxPoint x="1475" y="860" />
            </Array>
          </mxGeometry>
        </mxCell>
        <mxCell id="2nVb03XnOFbqIxCRd-F6-69" style="edgeStyle=orthogonalEdgeStyle;curved=1;orthogonalLoop=1;jettySize=auto;html=1;entryX=0.5;entryY=0;entryDx=0;entryDy=0;" parent="1" source="2nVb03XnOFbqIxCRd-F6-41" target="2nVb03XnOFbqIxCRd-F6-68" edge="1">
          <mxGeometry relative="1" as="geometry">
            <Array as="points">
              <mxPoint x="1485" y="920" />
              <mxPoint x="1465" y="920" />
            </Array>
          </mxGeometry>
        </mxCell>
        <mxCell id="2nVb03XnOFbqIxCRd-F6-41" value="free" style="strokeWidth=2;html=1;shape=mxgraph.flowchart.terminator;whiteSpace=wrap;fillColor=#ffe6cc;strokeColor=#d79b00;" parent="1" vertex="1">
          <mxGeometry x="1440" y="870" width="90" height="40" as="geometry" />
        </mxCell>
        <mxCell id="2nVb03XnOFbqIxCRd-F6-55" style="edgeStyle=orthogonalEdgeStyle;curved=1;orthogonalLoop=1;jettySize=auto;html=1;entryX=0;entryY=0.5;entryDx=0;entryDy=0;" parent="1" source="2nVb03XnOFbqIxCRd-F6-43" target="2nVb03XnOFbqIxCRd-F6-54" edge="1">
          <mxGeometry relative="1" as="geometry" />
        </mxCell>
        <mxCell id="2nVb03XnOFbqIxCRd-F6-57" style="edgeStyle=orthogonalEdgeStyle;curved=1;orthogonalLoop=1;jettySize=auto;html=1;entryX=0;entryY=0.5;entryDx=0;entryDy=0;" parent="1" source="2nVb03XnOFbqIxCRd-F6-43" target="2nVb03XnOFbqIxCRd-F6-56" edge="1">
          <mxGeometry relative="1" as="geometry" />
        </mxCell>
        <mxCell id="2nVb03XnOFbqIxCRd-F6-59" style="edgeStyle=orthogonalEdgeStyle;curved=1;orthogonalLoop=1;jettySize=auto;html=1;entryX=0;entryY=0.5;entryDx=0;entryDy=0;" parent="1" source="2nVb03XnOFbqIxCRd-F6-43" target="2nVb03XnOFbqIxCRd-F6-58" edge="1">
          <mxGeometry relative="1" as="geometry" />
        </mxCell>
        <mxCell id="2nVb03XnOFbqIxCRd-F6-61" style="edgeStyle=orthogonalEdgeStyle;curved=1;orthogonalLoop=1;jettySize=auto;html=1;entryX=0;entryY=0.5;entryDx=0;entryDy=0;" parent="1" source="2nVb03XnOFbqIxCRd-F6-43" target="2nVb03XnOFbqIxCRd-F6-60" edge="1">
          <mxGeometry relative="1" as="geometry">
            <Array as="points">
              <mxPoint x="1540" y="1060" />
              <mxPoint x="1540" y="1145" />
            </Array>
          </mxGeometry>
        </mxCell>
        <mxCell id="2nVb03XnOFbqIxCRd-F6-63" style="edgeStyle=orthogonalEdgeStyle;curved=1;orthogonalLoop=1;jettySize=auto;html=1;exitX=1;exitY=0.5;exitDx=0;exitDy=0;exitPerimeter=0;entryX=0;entryY=0.5;entryDx=0;entryDy=0;" parent="1" source="2nVb03XnOFbqIxCRd-F6-43" target="2nVb03XnOFbqIxCRd-F6-62" edge="1">
          <mxGeometry relative="1" as="geometry">
            <Array as="points">
              <mxPoint x="1530" y="1185" />
            </Array>
          </mxGeometry>
        </mxCell>
        <mxCell id="2nVb03XnOFbqIxCRd-F6-65" style="edgeStyle=orthogonalEdgeStyle;curved=1;orthogonalLoop=1;jettySize=auto;html=1;exitX=0.89;exitY=0.89;exitDx=0;exitDy=0;exitPerimeter=0;entryX=0;entryY=0.5;entryDx=0;entryDy=0;" parent="1" source="2nVb03XnOFbqIxCRd-F6-43" target="2nVb03XnOFbqIxCRd-F6-64" edge="1">
          <mxGeometry relative="1" as="geometry">
            <Array as="points">
              <mxPoint x="1530" y="1076" />
              <mxPoint x="1530" y="1225" />
            </Array>
          </mxGeometry>
        </mxCell>
        <mxCell id="2nVb03XnOFbqIxCRd-F6-71" style="edgeStyle=orthogonalEdgeStyle;curved=1;orthogonalLoop=1;jettySize=auto;html=1;" parent="1" source="2nVb03XnOFbqIxCRd-F6-43" target="2nVb03XnOFbqIxCRd-F6-70" edge="1">
          <mxGeometry relative="1" as="geometry">
            <Array as="points">
              <mxPoint x="1485" y="1030" />
              <mxPoint x="1465" y="1030" />
            </Array>
          </mxGeometry>
        </mxCell>
        <mxCell id="2nVb03XnOFbqIxCRd-F6-74" style="edgeStyle=orthogonalEdgeStyle;curved=1;orthogonalLoop=1;jettySize=auto;html=1;entryX=0.5;entryY=0;entryDx=0;entryDy=0;" parent="1" source="2nVb03XnOFbqIxCRd-F6-43" target="2nVb03XnOFbqIxCRd-F6-73" edge="1">
          <mxGeometry relative="1" as="geometry" />
        </mxCell>
        <mxCell id="2nVb03XnOFbqIxCRd-F6-43" value="premium" style="strokeWidth=2;html=1;shape=mxgraph.flowchart.terminator;whiteSpace=wrap;fillColor=#ffe6cc;strokeColor=#d79b00;" parent="1" vertex="1">
          <mxGeometry x="1440" y="1040" width="90" height="40" as="geometry" />
        </mxCell>
        <mxCell id="2nVb03XnOFbqIxCRd-F6-45" value="core functionality" style="rounded=1;whiteSpace=wrap;html=1;fillColor=#ffe6cc;strokeColor=#d79b00;" parent="1" vertex="1">
          <mxGeometry x="1570" y="840" width="130" height="30" as="geometry" />
        </mxCell>
        <mxCell id="2nVb03XnOFbqIxCRd-F6-47" value="evidenta angajatilor care au venit la birou" style="rounded=1;whiteSpace=wrap;html=1;fillColor=#ffe6cc;strokeColor=#d79b00;" parent="1" vertex="1">
          <mxGeometry x="1570" y="880" width="130" height="30" as="geometry" />
        </mxCell>
        <mxCell id="2nVb03XnOFbqIxCRd-F6-49" value="prioritizarea angajatilor" style="rounded=1;whiteSpace=wrap;html=1;fillColor=#ffe6cc;strokeColor=#d79b00;" parent="1" vertex="1">
          <mxGeometry x="1570" y="920" width="130" height="30" as="geometry" />
        </mxCell>
        <mxCell id="2nVb03XnOFbqIxCRd-F6-51" value="automatizarea aprobarii cererilor de venit la biro" style="rounded=1;whiteSpace=wrap;html=1;fillColor=#ffe6cc;strokeColor=#d79b00;" parent="1" vertex="1">
          <mxGeometry x="1570" y="960" width="130" height="30" as="geometry" />
        </mxCell>
        <mxCell id="2nVb03XnOFbqIxCRd-F6-54" value="sick tracker" style="rounded=1;whiteSpace=wrap;html=1;fillColor=#ffe6cc;strokeColor=#d79b00;" parent="1" vertex="1">
          <mxGeometry x="1570" y="1010" width="130" height="30" as="geometry" />
        </mxCell>
        <mxCell id="2nVb03XnOFbqIxCRd-F6-56" value="rapoarte pe zile" style="rounded=1;whiteSpace=wrap;html=1;fillColor=#ffe6cc;strokeColor=#d79b00;" parent="1" vertex="1">
          <mxGeometry x="1570" y="1050" width="130" height="30" as="geometry" />
        </mxCell>
        <mxCell id="2nVb03XnOFbqIxCRd-F6-58" value="export XML/ PDF/ CSV" style="rounded=1;whiteSpace=wrap;html=1;fillColor=#ffe6cc;strokeColor=#d79b00;" parent="1" vertex="1">
          <mxGeometry x="1570" y="1090" width="130" height="30" as="geometry" />
        </mxCell>
        <mxCell id="2nVb03XnOFbqIxCRd-F6-60" value="cine mai vine la birou in ziua respectiva" style="rounded=1;whiteSpace=wrap;html=1;fillColor=#ffe6cc;strokeColor=#d79b00;" parent="1" vertex="1">
          <mxGeometry x="1570" y="1130" width="130" height="30" as="geometry" />
        </mxCell>
        <mxCell id="2nVb03XnOFbqIxCRd-F6-62" value="confirmare automata pentru anummite pers" style="rounded=1;whiteSpace=wrap;html=1;fillColor=#ffe6cc;strokeColor=#d79b00;" parent="1" vertex="1">
          <mxGeometry x="1570" y="1170" width="130" height="30" as="geometry" />
        </mxCell>
        <mxCell id="2nVb03XnOFbqIxCRd-F6-64" value="creare pontaje" style="rounded=1;whiteSpace=wrap;html=1;fillColor=#ffe6cc;strokeColor=#d79b00;" parent="1" vertex="1">
          <mxGeometry x="1570" y="1210" width="130" height="30" as="geometry" />
        </mxCell>
        <mxCell id="2nVb03XnOFbqIxCRd-F6-66" value="main focus" style="rounded=1;whiteSpace=wrap;html=1;fillColor=#ffe6cc;strokeColor=#d79b00;" parent="1" vertex="1">
          <mxGeometry x="1410" y="810" width="130" height="30" as="geometry" />
        </mxCell>
        <mxCell id="2nVb03XnOFbqIxCRd-F6-68" value="trying to help in hard times" style="rounded=1;whiteSpace=wrap;html=1;fillColor=#ffe6cc;strokeColor=#d79b00;" parent="1" vertex="1">
          <mxGeometry x="1400" y="940" width="130" height="30" as="geometry" />
        </mxCell>
        <mxCell id="2nVb03XnOFbqIxCRd-F6-70" value="dupa ce terminam varinata free" style="rounded=1;whiteSpace=wrap;html=1;fillColor=#ffe6cc;strokeColor=#d79b00;" parent="1" vertex="1">
          <mxGeometry x="1400" y="980" width="130" height="30" as="geometry" />
        </mxCell>
        <mxCell id="2nVb03XnOFbqIxCRd-F6-73" value="it&#39;s not about the money" style="rounded=1;whiteSpace=wrap;html=1;fillColor=#ffe6cc;strokeColor=#d79b00;" parent="1" vertex="1">
          <mxGeometry x="1375" y="1120" width="130" height="30" as="geometry" />
        </mxCell>
        <mxCell id="upSCspArTriGyhxUzlXV-21" style="edgeStyle=orthogonalEdgeStyle;rounded=1;orthogonalLoop=1;jettySize=auto;html=1;entryX=0;entryY=0.75;entryDx=0;entryDy=0;" edge="1" parent="1" target="upSCspArTriGyhxUzlXV-7">
          <mxGeometry relative="1" as="geometry">
            <mxPoint x="1200" y="1066" as="sourcePoint" />
            <Array as="points">
              <mxPoint x="1190" y="1066" />
              <mxPoint x="1190" y="1103" />
            </Array>
          </mxGeometry>
        </mxCell>
        <mxCell id="upSCspArTriGyhxUzlXV-22" style="edgeStyle=orthogonalEdgeStyle;rounded=1;orthogonalLoop=1;jettySize=auto;html=1;exitX=0.11;exitY=0.89;exitDx=0;exitDy=0;exitPerimeter=0;entryX=0;entryY=0.5;entryDx=0;entryDy=0;" edge="1" parent="1" source="upSCspArTriGyhxUzlXV-1" target="upSCspArTriGyhxUzlXV-8">
          <mxGeometry relative="1" as="geometry" />
        </mxCell>
        <mxCell id="upSCspArTriGyhxUzlXV-23" style="edgeStyle=orthogonalEdgeStyle;rounded=1;orthogonalLoop=1;jettySize=auto;html=1;exitX=0.11;exitY=0.89;exitDx=0;exitDy=0;exitPerimeter=0;" edge="1" parent="1" source="upSCspArTriGyhxUzlXV-1">
          <mxGeometry relative="1" as="geometry">
            <mxPoint x="1210" y="1175" as="targetPoint" />
            <Array as="points">
              <mxPoint x="1190" y="1175" />
              <mxPoint x="1210" y="1175" />
            </Array>
          </mxGeometry>
        </mxCell>
        <mxCell id="upSCspArTriGyhxUzlXV-1" value="free press" style="strokeWidth=2;html=1;shape=mxgraph.flowchart.terminator;whiteSpace=wrap;fillColor=#dae8fc;strokeColor=#6c8ebf;" vertex="1" parent="1">
          <mxGeometry x="1180" y="1030" width="90" height="40" as="geometry" />
        </mxCell>
        <mxCell id="upSCspArTriGyhxUzlXV-16" style="edgeStyle=orthogonalEdgeStyle;rounded=1;orthogonalLoop=1;jettySize=auto;html=1;exitX=0.89;exitY=0.89;exitDx=0;exitDy=0;exitPerimeter=0;entryX=1;entryY=0.5;entryDx=0;entryDy=0;" edge="1" parent="1" source="upSCspArTriGyhxUzlXV-2" target="upSCspArTriGyhxUzlXV-9">
          <mxGeometry relative="1" as="geometry">
            <Array as="points">
              <mxPoint x="1150" y="1066" />
              <mxPoint x="1150" y="1095" />
            </Array>
          </mxGeometry>
        </mxCell>
        <mxCell id="upSCspArTriGyhxUzlXV-17" style="edgeStyle=orthogonalEdgeStyle;rounded=1;orthogonalLoop=1;jettySize=auto;html=1;exitX=0.89;exitY=0.89;exitDx=0;exitDy=0;exitPerimeter=0;entryX=1;entryY=0.5;entryDx=0;entryDy=0;" edge="1" parent="1" source="upSCspArTriGyhxUzlXV-2" target="upSCspArTriGyhxUzlXV-10">
          <mxGeometry relative="1" as="geometry">
            <Array as="points">
              <mxPoint x="1150" y="1066" />
              <mxPoint x="1150" y="1135" />
            </Array>
          </mxGeometry>
        </mxCell>
        <mxCell id="upSCspArTriGyhxUzlXV-18" style="edgeStyle=orthogonalEdgeStyle;rounded=1;orthogonalLoop=1;jettySize=auto;html=1;exitX=0.89;exitY=0.89;exitDx=0;exitDy=0;exitPerimeter=0;entryX=1;entryY=0.75;entryDx=0;entryDy=0;" edge="1" parent="1" source="upSCspArTriGyhxUzlXV-2" target="upSCspArTriGyhxUzlXV-11">
          <mxGeometry relative="1" as="geometry">
            <Array as="points">
              <mxPoint x="1150" y="1066" />
              <mxPoint x="1150" y="1183" />
            </Array>
          </mxGeometry>
        </mxCell>
        <mxCell id="upSCspArTriGyhxUzlXV-19" style="edgeStyle=orthogonalEdgeStyle;rounded=1;orthogonalLoop=1;jettySize=auto;html=1;exitX=0.89;exitY=0.89;exitDx=0;exitDy=0;exitPerimeter=0;entryX=1;entryY=0.75;entryDx=0;entryDy=0;" edge="1" parent="1" source="upSCspArTriGyhxUzlXV-2" target="upSCspArTriGyhxUzlXV-12">
          <mxGeometry relative="1" as="geometry">
            <Array as="points">
              <mxPoint x="1150" y="1066" />
              <mxPoint x="1150" y="1223" />
            </Array>
          </mxGeometry>
        </mxCell>
        <mxCell id="upSCspArTriGyhxUzlXV-20" style="edgeStyle=orthogonalEdgeStyle;rounded=1;orthogonalLoop=1;jettySize=auto;html=1;exitX=0.89;exitY=0.89;exitDx=0;exitDy=0;exitPerimeter=0;entryX=1;entryY=0.75;entryDx=0;entryDy=0;" edge="1" parent="1" source="upSCspArTriGyhxUzlXV-2" target="upSCspArTriGyhxUzlXV-13">
          <mxGeometry relative="1" as="geometry">
            <Array as="points">
              <mxPoint x="1150" y="1066" />
              <mxPoint x="1150" y="1263" />
            </Array>
          </mxGeometry>
        </mxCell>
        <mxCell id="upSCspArTriGyhxUzlXV-2" value="social media" style="strokeWidth=2;html=1;shape=mxgraph.flowchart.terminator;whiteSpace=wrap;fillColor=#dae8fc;strokeColor=#6c8ebf;" vertex="1" parent="1">
          <mxGeometry x="1060" y="1030" width="90" height="40" as="geometry" />
        </mxCell>
        <mxCell id="upSCspArTriGyhxUzlXV-4" style="edgeStyle=orthogonalEdgeStyle;curved=1;orthogonalLoop=1;jettySize=auto;html=1;entryX=0.5;entryY=0;entryDx=0;entryDy=0;entryPerimeter=0;" edge="1" parent="1" source="2nVb03XnOFbqIxCRd-F6-9" target="upSCspArTriGyhxUzlXV-2">
          <mxGeometry relative="1" as="geometry">
            <mxPoint x="1150" y="1000" as="sourcePoint" />
            <mxPoint x="1215" y="980" as="targetPoint" />
            <Array as="points">
              <mxPoint x="1130" y="1010" />
              <mxPoint x="1105" y="1010" />
            </Array>
          </mxGeometry>
        </mxCell>
        <mxCell id="upSCspArTriGyhxUzlXV-6" style="edgeStyle=orthogonalEdgeStyle;curved=1;orthogonalLoop=1;jettySize=auto;html=1;entryX=0.5;entryY=0;entryDx=0;entryDy=0;entryPerimeter=0;exitX=1;exitY=1;exitDx=0;exitDy=0;" edge="1" parent="1" source="2nVb03XnOFbqIxCRd-F6-9" target="upSCspArTriGyhxUzlXV-1">
          <mxGeometry relative="1" as="geometry">
            <mxPoint x="1140" y="995.2534013032785" as="sourcePoint" />
            <mxPoint x="1115" y="1040" as="targetPoint" />
            <Array as="points">
              <mxPoint x="1203" y="1000" />
              <mxPoint x="1225" y="1000" />
            </Array>
          </mxGeometry>
        </mxCell>
        <mxCell id="upSCspArTriGyhxUzlXV-7" value="presa locala" style="rounded=1;whiteSpace=wrap;html=1;fillColor=#dae8fc;strokeColor=#6c8ebf;" vertex="1" parent="1">
          <mxGeometry x="1210" y="1080" width="130" height="30" as="geometry" />
        </mxCell>
        <mxCell id="upSCspArTriGyhxUzlXV-8" value="televiziuni" style="rounded=1;whiteSpace=wrap;html=1;fillColor=#dae8fc;strokeColor=#6c8ebf;" vertex="1" parent="1">
          <mxGeometry x="1210" y="1120" width="130" height="30" as="geometry" />
        </mxCell>
        <mxCell id="upSCspArTriGyhxUzlXV-9" value="Facebook" style="rounded=1;whiteSpace=wrap;html=1;fillColor=#dae8fc;strokeColor=#6c8ebf;" vertex="1" parent="1">
          <mxGeometry x="1000" y="1080" width="130" height="30" as="geometry" />
        </mxCell>
        <mxCell id="upSCspArTriGyhxUzlXV-10" value="Instagram" style="rounded=1;whiteSpace=wrap;html=1;fillColor=#dae8fc;strokeColor=#6c8ebf;" vertex="1" parent="1">
          <mxGeometry x="1000" y="1120" width="130" height="30" as="geometry" />
        </mxCell>
        <mxCell id="upSCspArTriGyhxUzlXV-11" value="website" style="rounded=1;whiteSpace=wrap;html=1;fillColor=#dae8fc;strokeColor=#6c8ebf;" vertex="1" parent="1">
          <mxGeometry x="1000" y="1160" width="130" height="30" as="geometry" />
        </mxCell>
        <mxCell id="upSCspArTriGyhxUzlXV-12" value="LinkedIn" style="rounded=1;whiteSpace=wrap;html=1;fillColor=#dae8fc;strokeColor=#6c8ebf;" vertex="1" parent="1">
          <mxGeometry x="1000" y="1200" width="130" height="30" as="geometry" />
        </mxCell>
        <mxCell id="upSCspArTriGyhxUzlXV-13" value="Twitter" style="rounded=1;whiteSpace=wrap;html=1;fillColor=#dae8fc;strokeColor=#6c8ebf;" vertex="1" parent="1">
          <mxGeometry x="1000" y="1240" width="130" height="30" as="geometry" />
        </mxCell>
        <mxCell id="upSCspArTriGyhxUzlXV-14" value="parteneriate" style="rounded=1;whiteSpace=wrap;html=1;fillColor=#dae8fc;strokeColor=#6c8ebf;" vertex="1" parent="1">
          <mxGeometry x="1210" y="1160" width="130" height="30" as="geometry" />
        </mxCell>
        <mxCell id="upSCspArTriGyhxUzlXV-24" value="training-uri" style="strokeWidth=2;html=1;shape=mxgraph.flowchart.terminator;whiteSpace=wrap;fillColor=#d5e8d4;strokeColor=#82b366;" vertex="1" parent="1">
          <mxGeometry x="830" y="880" width="90" height="40" as="geometry" />
        </mxCell>
        <mxCell id="upSCspArTriGyhxUzlXV-25" value="licente software" style="strokeWidth=2;html=1;shape=mxgraph.flowchart.terminator;whiteSpace=wrap;fillColor=#d5e8d4;strokeColor=#82b366;" vertex="1" parent="1">
          <mxGeometry x="830" y="935" width="90" height="40" as="geometry" />
        </mxCell>
        <mxCell id="upSCspArTriGyhxUzlXV-33" value="Cloud" style="strokeWidth=2;html=1;shape=mxgraph.flowchart.terminator;whiteSpace=wrap;fillColor=#d5e8d4;strokeColor=#82b366;" vertex="1" parent="1">
          <mxGeometry x="830" y="990" width="90" height="40" as="geometry" />
        </mxCell>
      </root>
    </mxGraphModel>
  </diagram>
</mxfile>
